<svg width="11" height="12" viewBox="0 0 11 12" fill="none" xmlns="http://www.w3.org/2000/svg">
<path d="M10.3892 2.79342C10.4051 2.78399 10.4184 2.77048 10.4276 2.75424C10.4368 2.73801 10.4417 2.71961 10.4417 2.70089C10.4417 2.68217 10.4368 2.66377 10.4276 2.64753C10.4184 2.6313 10.4051 2.61779 10.3892 2.60835L6.35039 0.231623C6.09196 0.0799017 5.79856 0 5.49987 0C5.20117 0 4.90777 0.0799017 4.64935 0.231623L0.611348 2.60835C0.595382 2.61779 0.582135 2.6313 0.572929 2.64753C0.563723 2.66377 0.558878 2.68217 0.558878 2.70089C0.558878 2.71961 0.563723 2.73801 0.572929 2.75424C0.582135 2.77048 0.595382 2.78399 0.611348 2.79342L5.44712 5.67475C5.46338 5.68445 5.48192 5.68957 5.50079 5.68957C5.51967 5.68957 5.53821 5.68445 5.55447 5.67475L10.3892 2.79342ZM0.158656 3.52219C0.142527 3.51276 0.124224 3.50781 0.1056 3.50784C0.0869749 3.50787 0.0686882 3.51288 0.0525889 3.52236C0.0364895 3.53185 0.0231484 3.54547 0.0139145 3.56186C0.00468064 3.57824 -0.000118588 3.5968 2.22589e-06 3.61567V8.27298C0.000401427 8.49741 0.0588017 8.71783 0.169395 8.91231C0.279988 9.10679 0.438921 9.26856 0.630387 9.38153L4.91827 11.9856C4.93434 11.995 4.95257 12 4.97113 12C4.98969 12 5.00792 11.9951 5.02399 11.9857C5.04007 11.9763 5.05342 11.9628 5.06271 11.9465C5.072 11.9302 5.07691 11.9118 5.07692 11.893V6.48949C5.07691 6.4707 5.07201 6.45225 5.06273 6.43599C5.05344 6.41972 5.0401 6.40621 5.02404 6.39682L0.158656 3.52219ZM5.92308 6.50824V11.8916C5.9231 11.9104 5.928 11.9289 5.93729 11.9452C5.94658 11.9614 5.95993 11.9749 5.97601 11.9843C5.99209 11.9937 6.01032 11.9987 6.02887 11.9987C6.04743 11.9987 6.06566 11.9937 6.08173 11.9843L10.3694 9.38019C10.5607 9.26737 10.7195 9.10583 10.8302 8.9116C10.9408 8.71737 10.9993 8.49721 11 8.27298V3.61567C10.9999 3.59689 10.995 3.57847 10.9857 3.56223C10.9764 3.546 10.963 3.53253 10.947 3.52317C10.9309 3.51381 10.9127 3.50889 10.8941 3.50891C10.8756 3.50893 10.8574 3.51388 10.8413 3.52326L5.97596 6.41584C5.95994 6.42521 5.94662 6.43867 5.93734 6.45489C5.92806 6.4711 5.92314 6.4895 5.92308 6.50824Z" fill="#FD4343"/>
</svg>
