<svg width="12" height="12" viewBox="0 0 12 12" fill="none" xmlns="http://www.w3.org/2000/svg">
<path d="M2.04456 4.42525H0C0.0419397 4.27641 0.0943643 4.13289 0.157274 3.99468C0.220183 3.85648 0.304063 3.7289 0.408912 3.61196L3.11402 0.342857C3.22936 0.19402 3.37615 0.0930233 3.55439 0.0398671C3.73263 -0.013289 3.91088 -0.013289 4.08912 0.0398671L4.89122 0.27907C5.10092 0.332226 5.26868 0.443854 5.3945 0.613954C5.52031 0.784053 5.58322 0.975415 5.58322 1.18804V2.79867L6.90432 2.4C7.17693 2.31495 7.43119 2.34419 7.6671 2.48771C7.90301 2.63123 8.04718 2.8412 8.09961 3.11761L8.74443 6.35482L11.4653 8.93821C11.6435 9.10831 11.7772 9.30233 11.8663 9.52027C11.9554 9.73821 12 9.9907 12 10.2777C12 10.6286 11.9083 10.9422 11.7248 11.2186C11.5413 11.495 11.3028 11.7023 11.0092 11.8405L3.97903 5.1907C3.70642 4.94618 3.4076 4.75748 3.08257 4.62458C2.75754 4.49169 2.41153 4.42525 2.04456 4.42525ZM7.29751 12C7.03539 12 6.78375 11.9522 6.54259 11.8565C6.30144 11.7608 6.0865 11.6226 5.89777 11.4419L0.597641 6.51429C0.450852 6.37608 0.330275 6.2299 0.235911 6.07575C0.141547 5.92159 0.068152 5.75415 0.0157274 5.57342H2.04456C2.25426 5.57342 2.46134 5.61329 2.66579 5.69302C2.87025 5.77276 3.05111 5.88704 3.20839 6.03588L9.49934 12H7.29751Z" fill="#FF913D"/>
</svg>
