<svg width="14" height="12" viewBox="0 0 14 12" fill="none" xmlns="http://www.w3.org/2000/svg">
<path d="M3.04083 5.26786L2.29279 5.69643C2.13467 5.79167 1.97046 5.81548 1.80017 5.76786C1.62989 5.72024 1.49609 5.61905 1.39878 5.46429L0.0851433 3.23214C0 3.07738 -0.0212858 2.91667 0.0212858 2.75C0.0638575 2.58333 0.164205 2.45238 0.322328 2.35714L4.48219 0H5.13901C5.27281 0 5.39444 0.0416667 5.50391 0.125C5.61338 0.208333 5.69244 0.315476 5.74109 0.446429L5.75934 0.482143C5.85665 0.732143 6.01781 0.928571 6.24283 1.07143C6.46785 1.21429 6.72024 1.28571 7 1.28571C7.27976 1.28571 7.53215 1.21429 7.75717 1.07143C7.98219 0.928571 8.14335 0.732143 8.24066 0.482143L8.25891 0.446429C8.30756 0.315476 8.38966 0.208333 8.50521 0.125C8.62076 0.0416667 8.74544 0 8.87924 0H9.51781L13.6777 2.35714C13.8358 2.45238 13.9361 2.58333 13.9787 2.75C14.0213 2.91667 14 3.07738 13.9149 3.23214L12.6012 5.46429C12.5039 5.61905 12.3701 5.72024 12.1998 5.76786C12.0295 5.81548 11.8653 5.79167 11.7072 5.69643L10.9409 5.26786V11.3571C10.9409 11.5357 10.8771 11.6875 10.7493 11.8125C10.6216 11.9375 10.4666 12 10.2841 12H3.69765C3.5152 12 3.36012 11.9375 3.23241 11.8125C3.10469 11.6875 3.04083 11.5357 3.04083 11.3571V5.26786Z" fill="#C1E23C"/>
</svg>
