<svg width="7" height="14" viewBox="0 0 7 14" fill="none" xmlns="http://www.w3.org/2000/svg">
<path d="M2.45 14V9.8H0L2.135 4.41C2.25167 4.13 2.4325 3.90833 2.6775 3.745C2.9225 3.58167 3.19667 3.5 3.5 3.5C3.80333 3.5 4.0775 3.58167 4.3225 3.745C4.5675 3.90833 4.74833 4.13 4.865 4.41L7 9.8H4.55V14H2.45ZM3.5 2.8C3.115 2.8 2.78542 2.66292 2.51125 2.38875C2.23708 2.11458 2.1 1.785 2.1 1.4C2.1 1.015 2.23708 0.685417 2.51125 0.41125C2.78542 0.137083 3.115 0 3.5 0C3.885 0 4.21458 0.137083 4.48875 0.41125C4.76292 0.685417 4.9 1.015 4.9 1.4C4.9 1.785 4.76292 2.11458 4.48875 2.38875C4.21458 2.66292 3.885 2.8 3.5 2.8Z" fill="#FD43E7"/>
</svg>
