<svg width="11" height="11" viewBox="0 0 11 11" fill="none" xmlns="http://www.w3.org/2000/svg">
<path d="M6.25911 11L7.43359 9.96875C8.16884 9.2908 8.68924 8.70595 8.99479 8.21419C9.30035 7.72244 9.45313 7.21875 9.45313 6.70313C9.45313 6.49306 9.42448 6.28537 9.36719 6.08008C9.3099 5.87478 9.22873 5.68142 9.1237 5.5H9.97233C10.2469 5.5 10.4868 5.60265 10.6921 5.80794C10.8974 6.01324 11 6.25257 11 6.52595V11H6.25911ZM0 11V6.52595C0 6.25257 0.10026 6.01324 0.300781 5.80794C0.501302 5.60265 0.744601 5.5 1.03068 5.5H1.8763C1.77127 5.69097 1.6901 5.88433 1.63281 6.08008C1.57552 6.27582 1.54688 6.48184 1.54688 6.69811C1.54688 7.21708 1.69488 7.72005 1.99089 8.20703C2.28689 8.69401 2.80729 9.28125 3.55208 9.96875L4.74089 11H0ZM9.28125 4.8125C8.79427 4.8125 8.38607 4.64779 8.05664 4.31836C7.72721 3.98893 7.5625 3.58073 7.5625 3.09375C7.5625 2.61632 7.72721 2.2105 8.05664 1.8763C8.38607 1.5421 8.79427 1.375 9.28125 1.375C9.75868 1.375 10.1645 1.5421 10.4987 1.8763C10.8329 2.2105 11 2.61632 11 3.09375C11 3.58073 10.8329 3.98893 10.4987 4.31836C10.1645 4.64779 9.75868 4.8125 9.28125 4.8125ZM5.49957 3.78125C4.97468 3.78125 4.52843 3.59744 4.16081 3.22982C3.79319 2.8622 3.60938 2.41594 3.60938 1.89106C3.60938 1.37514 3.79319 0.93099 4.16081 0.558594C4.52843 0.186198 4.97468 0 5.49957 0C6.01548 0 6.45964 0.186198 6.83203 0.558594C7.20443 0.93099 7.39063 1.37514 7.39063 1.89106C7.39063 2.41594 7.20443 2.8622 6.83203 3.22982C6.45964 3.59744 6.01548 3.78125 5.49957 3.78125ZM2.57813 6.70313C2.57813 7.06597 2.80729 7.53385 3.26563 8.10677C3.72396 8.67969 4.47352 9.41493 5.51432 10.3125C6.6697 9.2526 7.44314 8.48356 7.83464 8.00537C8.22613 7.52717 8.42188 7.09309 8.42188 6.70313C8.42188 6.31163 8.29058 5.98459 8.02799 5.72201C7.76541 5.45942 7.43837 5.32813 7.04688 5.32813C6.82726 5.32813 6.61676 5.38064 6.41538 5.48568C6.214 5.59071 6.03778 5.71962 5.88672 5.8724L5.5 6.24479L5.1276 5.90104C4.96528 5.74826 4.7934 5.61458 4.61198 5.5C4.43056 5.38542 4.20903 5.32813 3.9474 5.32813C3.55017 5.32813 3.22266 5.45942 2.96484 5.72201C2.70703 5.98459 2.57813 6.31163 2.57813 6.70313ZM1.71875 4.8125C1.23177 4.8125 0.823568 4.64779 0.494141 4.31836C0.164714 3.98893 0 3.58073 0 3.09375C0 2.61632 0.164714 2.2105 0.494141 1.8763C0.823568 1.5421 1.23177 1.375 1.71875 1.375C2.19618 1.375 2.602 1.5421 2.9362 1.8763C3.2704 2.2105 3.4375 2.61632 3.4375 3.09375C3.4375 3.58073 3.2704 3.98893 2.9362 4.31836C2.602 4.64779 2.19618 4.8125 1.71875 4.8125Z" fill="#F25645"/>
</svg>
