<svg width="6" height="14" viewBox="0 0 6 14" fill="none" xmlns="http://www.w3.org/2000/svg">
<path d="M1.5 14V9.1H0V4.9C0 4.515 0.146875 4.18542 0.440625 3.91125C0.734375 3.63708 1.0875 3.5 1.5 3.5H4.5C4.9125 3.5 5.26563 3.63708 5.55938 3.91125C5.85313 4.18542 6 4.515 6 4.9V9.1H4.5V14H1.5ZM3 2.8C2.5875 2.8 2.23438 2.66292 1.94063 2.38875C1.64688 2.11458 1.5 1.785 1.5 1.4C1.5 1.015 1.64688 0.685417 1.94063 0.41125C2.23438 0.137083 2.5875 0 3 0C3.4125 0 3.76563 0.137083 4.05938 0.41125C4.35313 0.685417 4.5 1.015 4.5 1.4C4.5 1.785 4.35313 2.11458 4.05938 2.38875C3.76563 2.66292 3.4125 2.8 3 2.8Z" fill="#436EFD"/>
</svg>
