<svg width="20" height="20" viewBox="0 0 20 20" fill="none" xmlns="http://www.w3.org/2000/svg">
<path d="M0 20V15.4464L14.8214 0.625C15.0397 0.406746 15.2778 0.248016 15.5357 0.14881C15.7937 0.0496032 16.0615 0 16.3393 0C16.6171 0 16.8849 0.0496032 17.1429 0.14881C17.4008 0.248016 17.6389 0.406746 17.8571 0.625L19.375 2.14286C19.5933 2.36111 19.752 2.59921 19.8512 2.85714C19.9504 3.11508 20 3.38294 20 3.66071C20 3.93849 19.9504 4.20635 19.8512 4.46429C19.752 4.72222 19.5933 4.96032 19.375 5.17857L4.55357 20H0ZM16.3393 5.17857L17.8571 3.66071L16.3393 2.14286L14.8214 3.66071L16.3393 5.17857Z" fill="white"/>
</svg>
