<svg width="16" height="6" viewBox="0 0 16 6" fill="none" xmlns="http://www.w3.org/2000/svg">
<path d="M3.44348 6C2.95652 6 2.51884 5.83125 2.13043 5.49375C1.74203 5.15625 1.49565 4.725 1.3913 4.2L0.886956 1.6875L0.121739 1.74375L0 0.24375C0.904348 0.15625 1.67826 0.09375 2.32174 0.05625C2.96522 0.01875 3.54203 0 4.05217 0C4.8058 0 5.41449 0.0375 5.87826 0.1125C6.34203 0.1875 6.75942 0.31875 7.13043 0.50625C7.29275 0.59375 7.44638 0.65625 7.5913 0.69375C7.73623 0.73125 7.87246 0.75 8 0.75C8.12754 0.75 8.25217 0.73125 8.37391 0.69375C8.49565 0.65625 8.63768 0.6 8.8 0.525C9.18261 0.3375 9.62319 0.203125 10.1217 0.121875C10.6203 0.040625 11.2812 0 12.1043 0C12.6377 0 13.229 0.01875 13.8783 0.05625C14.5275 0.09375 15.2348 0.15 16 0.225L15.8783 1.70625L15.1304 1.65L14.6087 4.21875C14.5043 4.74375 14.2609 5.17188 13.8783 5.50313C13.4957 5.83438 13.0609 6 12.5739 6H11.0261C10.5391 6 10.1101 5.84063 9.73913 5.52188C9.36812 5.20312 9.12464 4.79375 9.0087 4.29375L8.53913 2.2875H7.47826L7.0087 4.29375C6.88116 4.80625 6.63188 5.21875 6.26087 5.53125C5.88985 5.84375 5.46667 6 4.9913 6H3.44348ZM2.74783 3.9C2.78261 4.075 2.86377 4.21875 2.9913 4.33125C3.11884 4.44375 3.26377 4.5 3.42609 4.5H4.97391C5.13623 4.5 5.28116 4.44688 5.4087 4.34063C5.53623 4.23438 5.61739 4.1 5.65217 3.9375L6.1913 1.66875C5.87826 1.60625 5.52464 1.56563 5.13043 1.54688C4.73623 1.52813 4.37681 1.51875 4.05217 1.51875C3.78551 1.51875 3.49855 1.52188 3.1913 1.52813C2.88406 1.53438 2.5971 1.55 2.33043 1.575L2.74783 3.9ZM10.3478 3.9375C10.3826 4.1 10.4638 4.23438 10.5913 4.34063C10.7188 4.44688 10.8638 4.5 11.0261 4.5H12.5739C12.7362 4.5 12.8812 4.44375 13.0087 4.33125C13.1362 4.21875 13.2174 4.075 13.2522 3.9L13.7043 1.55625C13.4725 1.54375 13.2058 1.53438 12.9043 1.52813C12.6029 1.52188 12.3362 1.51875 12.1043 1.51875C11.7565 1.51875 11.371 1.52813 10.9478 1.54688C10.5246 1.56563 10.1449 1.60625 9.80869 1.66875L10.3478 3.9375Z" fill="#43C2FD"/>
</svg>
