<svg width="12" height="14" viewBox="0 0 12 14" fill="none" xmlns="http://www.w3.org/2000/svg">
<path d="M1.05882 14V8.75H0V4.9C0 4.515 0.138235 4.18542 0.414706 3.91125C0.691177 3.63708 1.02353 3.5 1.41176 3.5H3.52941C3.91765 3.5 4.25 3.63708 4.52647 3.91125C4.80294 4.18542 4.94118 4.515 4.94118 4.9V8.75H3.88235V14H1.05882ZM2.47059 2.8C2.08235 2.8 1.75 2.66292 1.47353 2.38875C1.19706 2.11458 1.05882 1.785 1.05882 1.4C1.05882 1.015 1.19706 0.685417 1.47353 0.41125C1.75 0.137083 2.08235 0 2.47059 0C2.85882 0 3.19118 0.137083 3.46765 0.41125C3.74412 0.685417 3.88235 1.015 3.88235 1.4C3.88235 1.785 3.74412 2.11458 3.46765 2.38875C3.19118 2.66292 2.85882 2.8 2.47059 2.8ZM7.76471 14V9.8H5.64706L7.44706 4.445C7.54118 4.14167 7.71471 3.90833 7.96765 3.745C8.22059 3.58167 8.50588 3.5 8.82353 3.5C9.14118 3.5 9.42647 3.58167 9.67941 3.745C9.93235 3.90833 10.1059 4.14167 10.2 4.445L12 9.8H9.88235V14H7.76471ZM8.82353 2.8C8.43529 2.8 8.10294 2.66292 7.82647 2.38875C7.55 2.11458 7.41177 1.785 7.41177 1.4C7.41177 1.015 7.55 0.685417 7.82647 0.41125C8.10294 0.137083 8.43529 0 8.82353 0C9.21177 0 9.54412 0.137083 9.82059 0.41125C10.0971 0.685417 10.2353 1.015 10.2353 1.4C10.2353 1.785 10.0971 2.11458 9.82059 2.38875C9.54412 2.66292 9.21177 2.8 8.82353 2.8Z" fill="#9143FD"/>
</svg>
